<svg xmlns="http://www.w3.org/2000/svg" width="177.523" height="50.132" viewBox="0 0 177.523 50.132"><defs><style>.a{fill:#fff;}</style></defs><g transform="translate(0.001)"><path class="a" d="M1074.721,807.03a29.507,29.507,0,0,1-8.752,1.114c-4.606,0-8.658-2.048-8.658-6.787v-.431c0-3.963,3.841-6.054,9.772-6.273,1.367-.039,2.73-.086,4.1-.167v-1.2c0-2.99-2.09-3.927-5.376-3.927a16.562,16.562,0,0,0-6.487,1.323c-.344-1.067-.683-2.137-1.028-3.2a21.625,21.625,0,0,1,7.729-1.451c4.948,0,8.7,1.965,8.7,7.682Zm-3.541-9.642c-6.059.169-10.326.256-10.326,3.538v.431c0,2.515,2.174,3.455,5.164,3.455a18.47,18.47,0,0,0,5.162-.512Z" transform="translate(-1004.038 -763.904)"/><path class="a" d="M1077.882,796.405c0-7.3,4.185-10.372,9.775-10.372a10.993,10.993,0,0,1,6.1,1.879c-.3,1.022-.682,2.048-.979,3.073a9.217,9.217,0,0,0-5.122-1.62c-3.8,0-6.232,1.873-6.232,7.04v1.107c0,5.038,2.688,7.3,6.66,7.3a9.985,9.985,0,0,0,5.075-1.279c.3,1.023.686,2.005.984,3.03a11.088,11.088,0,0,1-6.059,1.584c-6.4,0-10.2-4.233-10.2-10.633Z" transform="translate(-1004.038 -763.904)"/><path class="a" d="M1096.154,796.405c0-7.3,4.181-10.372,9.77-10.372a11.01,11.01,0,0,1,6.106,1.879c-.3,1.022-.686,2.048-.981,3.073a9.211,9.211,0,0,0-5.125-1.62c-3.794,0-6.231,1.873-6.231,7.04v1.107c0,5.038,2.69,7.3,6.662,7.3a9.978,9.978,0,0,0,5.075-1.279c.3,1.023.681,2.005.981,3.03a11.078,11.078,0,0,1-6.056,1.584c-6.4,0-10.2-4.233-10.2-10.633Z" transform="translate(-1004.038 -763.904)"/><path class="a" d="M1132.688,798.453h-14.636v.211c0,4.186,2.473,6.145,6.481,6.145a18.229,18.229,0,0,0,6.662-1.148l1.02,3.116a20.766,20.766,0,0,1-7.682,1.37c-6.142,0-10.109-3.124-10.109-10.5v-1.112c0-7.385,3.628-10.5,9.131-10.5,5.55,0,9.133,3.113,9.133,10.5Zm-14.636-2.73H1129.1v-.258c0-4.264-2.221-6.1-5.55-6.1s-5.5,1.837-5.5,6.1Z" transform="translate(-1004.038 -763.904)"/><path class="a" d="M1152.878,807.03a26.872,26.872,0,0,1-7.852,1.116c-5.636,0-9.558-3.295-9.558-10.55v-1.02c0-7.382,4.136-10.542,9.772-10.542a11.359,11.359,0,0,1,4.136.728v-8.88h3.5Zm-13.872-9.434c0,5.551,2.393,7.213,6.148,7.213a14.038,14.038,0,0,0,4.222-.511V790.173a9.019,9.019,0,0,0-3.927-.809c-3.794,0-6.443,1.62-6.443,7.212Z" transform="translate(-1004.038 -763.904)"/><path class="a" d="M1159.239,777.667a2.241,2.241,0,1,1-2.262,2.263,2.254,2.254,0,0,1,2.262-2.263m-1.751,8.752h3.5v21.335h-3.5Z" transform="translate(-1004.038 -763.904)"/><path class="a" d="M1181.561,807.03a29.5,29.5,0,0,1-8.752,1.114c-4.6,0-8.656-2.048-8.656-6.787v-.431c0-3.963,3.836-6.054,9.77-6.273,1.367-.039,2.727-.086,4.1-.167v-1.2c0-2.99-2.093-3.927-5.376-3.927a16.575,16.575,0,0,0-6.487,1.323c-.344-1.067-.686-2.137-1.025-3.2a21.592,21.592,0,0,1,7.724-1.451c4.95,0,8.705,1.965,8.705,7.682Zm-3.541-9.642c-6.064.169-10.328.256-10.328,3.538v.431c0,2.515,2.174,3.455,5.164,3.455a18.49,18.49,0,0,0,5.164-.512Z" transform="translate(-1004.038 -763.904)"/><path class="a" d="M1028.143,809.266l-8.77,4.77c-9.321-11.81-21.718-37.7-11.495-43.885-8.671,6.9,14.4,33.828,20.265,39.115" transform="translate(-1004.038 -763.904)"/><path class="a" d="M1008.571,769.748c6.093-3.037,16.3,1.488,25.267,7.2.606-.712.9-1.1,1.563-1.811-11.043-7.1-21.789-8.755-26.83-5.386" transform="translate(-1004.038 -763.904)"/><path class="a" d="M1048.967,787.845a73.513,73.513,0,0,0-9.538-9.8c-.461.718-.733,1.2-1.171,1.926,4.133,3.019,7.531,6.051,10.229,8.214Z" transform="translate(-1004.038 -763.904)"/><path class="a" d="M1050.03,763.9c-18.538,10.584-29.284,33.967-30.63,50.107l8.739-4.731c.757-13.264,7.993-33.111,22.081-45.1Z" transform="translate(-1004.038 -763.904)"/></g></svg>