<svg xmlns="http://www.w3.org/2000/svg" width="383.605" height="383.605" viewBox="0 0 383.605 383.605">
  <g id="Applications_red_circle" transform="translate(-540 -603)">
    <g id="Consulting" transform="translate(127 485)">
      <g id="Group_1018" data-name="Group 1018" transform="translate(413 118)">
        <g id="Group_758" data-name="Group 758" transform="translate(0 0)">
          <g id="Group_447" data-name="Group 447">
            <g id="Call_to_Action" data-name="Call to Action">
              <path id="Path_337" data-name="Path 337" d="M191.8,0c105.93,0,191.8,85.873,191.8,191.8s-85.873,191.8-191.8,191.8S0,297.733,0,191.8,85.873,0,191.8,0Z" transform="translate(0 0)" fill="#c00"/>
            </g>
          </g>
        </g>
      </g>
    </g>
    <g id="Applications" transform="translate(126.275 696.514)">
      <path id="Path_380" data-name="Path 380" d="M555.748,84.218,553.41,71.379l12.839-2.338" transform="translate(30.698 48.448)" fill="none" stroke="#fff" stroke-linecap="round" stroke-linejoin="round" stroke-width="6"/>
      <path id="Path_381" data-name="Path 381" d="M580.3,36.576l2.339,12.839L569.8,51.753" transform="translate(43.706 22.808)" fill="none" stroke="#fff" stroke-linecap="round" stroke-linejoin="round" stroke-width="6"/>
      <path id="Path_382" data-name="Path 382" d="M695.141,113.461A121.551,121.551,0,0,0,696,98.446a127.851,127.851,0,0,0-.857-15.238l-21.907-2.83a69.932,69.932,0,0,0-7.182-17.344L679.54,45.546a121.642,121.642,0,0,0-10.01-11.225,127.683,127.683,0,0,0-11.382-10.168L640.72,37.6A69.927,69.927,0,0,0,623.3,30.321l-2.81-21.766A121.313,121.313,0,0,0,605.472,7.7a127.622,127.622,0,0,0-15.238.859l-2.8,21.655a69.952,69.952,0,0,0-17.6,7.264l-17.268-13.32A121.232,121.232,0,0,0,541.35,34.166a127.831,127.831,0,0,0-10.168,11.38l13.275,17.21A69.939,69.939,0,0,0,537.1,80.429l-21.519,2.779a121.534,121.534,0,0,0-.858,15.015,127.872,127.872,0,0,0,.858,15.238l21.519,2.777a69.884,69.884,0,0,0,7.356,17.672l-13.275,17.21a121.391,121.391,0,0,0,10.01,11.224,127.615,127.615,0,0,0,11.382,10.168l17.268-13.32a69.886,69.886,0,0,0,17.6,7.264l2.8,21.657a121.567,121.567,0,0,0,15.017.857,127.89,127.89,0,0,0,15.238-.857l2.81-21.767a69.955,69.955,0,0,0,17.42-7.275l17.429,13.443A121.586,121.586,0,0,0,669.373,162.5,127.681,127.681,0,0,0,679.54,151.12l-13.489-17.488a69.875,69.875,0,0,0,7.182-17.344Z" transform="translate(0 0)" fill="none" stroke="#fff" stroke-linecap="round" stroke-linejoin="round" stroke-width="6"/>
      <g id="Group_762" data-name="Group 762" transform="translate(565.985 57.386)">
        <path id="Path_237" data-name="Path 237" d="M559.764,105.031A38.952,38.952,0,0,0,602.777,46.7" transform="translate(-530.736 -28.378)" fill="none" stroke="#fff" stroke-linecap="round" stroke-linejoin="round" stroke-width="6"/>
        <path id="Path_238" data-name="Path 238" d="M594.085,39.089a38.952,38.952,0,0,0-42.148,58.55" transform="translate(-546 -38.012)" fill="none" stroke="#fff" stroke-linecap="round" stroke-linejoin="round" stroke-width="6"/>
      </g>
    </g>
  </g>
</svg>
