<svg xmlns="http://www.w3.org/2000/svg" width="63.135" height="63.135" viewBox="0 0 63.135 63.135">
  <g id="Applications_active" transform="translate(-205.499 -1502.099)">
    <g id="Group_762" data-name="Group 762" transform="translate(-307.725 1495.903)">
      <path id="Path_380" data-name="Path 380" d="M554.186,74.075l-.776-4.259,4.259-.776" transform="translate(-15.669 -24.922)" fill="none" stroke="#c00" stroke-linecap="round" stroke-linejoin="round" stroke-width="3"/>
      <path id="Path_381" data-name="Path 381" d="M573.286,36.576l.776,4.259-4.259.776" transform="translate(-22.308 -11.733)" fill="none" stroke="#c00" stroke-linecap="round" stroke-linejoin="round" stroke-width="3"/>
      <path id="Path_382" data-name="Path 382" d="M574.575,42.782a40.325,40.325,0,0,0,.284-4.981,42.415,42.415,0,0,0-.284-5.055l-7.267-.939a23.2,23.2,0,0,0-2.383-5.754l4.475-5.8a40.349,40.349,0,0,0-3.321-3.724,42.358,42.358,0,0,0-3.776-3.373l-5.781,4.46a23.2,23.2,0,0,0-5.78-2.414l-.932-7.22a40.244,40.244,0,0,0-4.982-.285,42.337,42.337,0,0,0-5.055.285l-.927,7.184a23.206,23.206,0,0,0-5.837,2.41l-5.728-4.419a40.217,40.217,0,0,0-3.724,3.321,42.411,42.411,0,0,0-3.373,3.775l4.4,5.709a23.2,23.2,0,0,0-2.44,5.863l-7.139.922a40.317,40.317,0,0,0-.284,4.981,42.419,42.419,0,0,0,.284,5.055l7.139.921a23.184,23.184,0,0,0,2.44,5.863l-4.4,5.709A40.273,40.273,0,0,0,523.5,59a42.335,42.335,0,0,0,3.776,3.373l5.728-4.419a23.184,23.184,0,0,0,5.837,2.41l.927,7.184a40.329,40.329,0,0,0,4.982.284,42.426,42.426,0,0,0,5.055-.284l.932-7.221a23.207,23.207,0,0,0,5.779-2.413l5.782,4.46a40.332,40.332,0,0,0,3.724-3.321,42.357,42.357,0,0,0,3.373-3.776l-4.475-5.8a23.18,23.18,0,0,0,2.383-5.754Z" fill="none" stroke="#c00" stroke-linecap="round" stroke-linejoin="round" stroke-width="3"/>
      <g id="Group_762-2" data-name="Group 762" transform="translate(531.729 24.18)">
        <path id="Path_237" data-name="Path 237" d="M559.764,66.05A12.922,12.922,0,0,0,574.033,46.7" transform="translate(-550.134 -40.622)" fill="none" stroke="#c00" stroke-linecap="round" stroke-linejoin="round" stroke-width="3"/>
        <path id="Path_238" data-name="Path 238" d="M561.952,38.37a12.922,12.922,0,0,0-13.982,19.423" transform="translate(-546 -38.012)" fill="none" stroke="#c00" stroke-linecap="round" stroke-linejoin="round" stroke-width="3"/>
      </g>
    </g>
  </g>
</svg>
