<svg xmlns="http://www.w3.org/2000/svg" width="383.605" height="383.605" viewBox="0 0 383.605 383.605">
  <g id="business_intelligence_circle" transform="translate(-509 -1021)">
    <g id="Applications_red_circle" transform="translate(-31 418)">
      <g id="Consulting" transform="translate(127 485)">
        <g id="Group_1018" data-name="Group 1018" transform="translate(413 118)">
          <g id="Group_758" data-name="Group 758" transform="translate(0 0)">
            <g id="Group_447" data-name="Group 447">
              <g id="Call_to_Action" data-name="Call to Action">
                <path id="Path_337" data-name="Path 337" d="M191.8,0c105.93,0,191.8,85.873,191.8,191.8s-85.873,191.8-191.8,191.8S0,297.733,0,191.8,85.873,0,191.8,0Z" transform="translate(0 0)" fill="#c00"/>
              </g>
            </g>
          </g>
        </g>
      </g>
    </g>
    <g id="Group_2431" data-name="Group 2431" transform="translate(-319.4 949.375)">
      <g id="Group_2414" data-name="Group 2414" transform="translate(930.4 171.625)">
        <path id="Path_20622" data-name="Path 20622" d="M420.762,264.212a3.472,3.472,0,0,1-3.462-3.462V239.461a3.461,3.461,0,1,1,6.923,0V260.75A3.472,3.472,0,0,1,420.762,264.212Z" transform="translate(-284.204 -94.942)" fill="#fff"/>
        <path id="Path_20623" data-name="Path 20623" d="M420.762,226.154a3.472,3.472,0,0,1-3.462-3.462V157.961a3.461,3.461,0,1,1,6.923,0v64.731A3.472,3.472,0,0,1,420.762,226.154Z" transform="translate(-284.204 -154.5)" fill="#fff"/>
        <path id="Path_20624" data-name="Path 20624" d="M405.362,266.623a3.472,3.472,0,0,1-3.462-3.462v-27a3.462,3.462,0,1,1,6.923,0v27A3.472,3.472,0,0,1,405.362,266.623Z" transform="translate(-295.458 -97.354)" fill="#fff"/>
        <path id="Path_20625" data-name="Path 20625" d="M405.362,224.058A3.472,3.472,0,0,1,401.9,220.6V167.461a3.462,3.462,0,0,1,6.923,0V220.6A3.472,3.472,0,0,1,405.362,224.058Z" transform="translate(-295.458 -147.558)" fill="#fff"/>
        <path id="Path_20626" data-name="Path 20626" d="M389.961,302.942a3.472,3.472,0,0,1-3.462-3.461V186.461a3.462,3.462,0,0,1,6.923,0V299.481A3.365,3.365,0,0,1,389.961,302.942Z" transform="translate(-306.711 -133.673)" fill="#fff"/>
        <path id="Path_20627" data-name="Path 20627" d="M374.662,299.435a3.472,3.472,0,0,1-3.462-3.462V191.262a3.462,3.462,0,1,1,6.923,0V295.973A3.472,3.472,0,0,1,374.662,299.435Z" transform="translate(-317.892 -130.165)" fill="#fff"/>
        <path id="Path_20628" data-name="Path 20628" d="M359.261,287.3a3.472,3.472,0,0,1-3.462-3.462V207.862a3.462,3.462,0,1,1,6.923,0v75.981A3.472,3.472,0,0,1,359.261,287.3Z" transform="translate(-329.146 -118.035)" fill="#fff"/>
        <path id="Path_20629" data-name="Path 20629" d="M343.862,278.681a3.472,3.472,0,0,1-3.462-3.461V219.661a3.462,3.462,0,0,1,6.923,0v55.558A3.472,3.472,0,0,1,343.862,278.681Z" transform="translate(-340.4 -109.411)" fill="#fff"/>
        <path id="Path_20630" data-name="Path 20630" d="M455.481,259.862a3.417,3.417,0,0,1-2.423-1.038l-27.519-27.865a3.345,3.345,0,0,1,0-4.846,3.5,3.5,0,0,1,4.846,0L457.9,253.977a3.345,3.345,0,0,1,0,4.846A3.417,3.417,0,0,1,455.481,259.862Z" transform="translate(-278.942 -102.881)" fill="#fff"/>
        <path id="Path_20631" data-name="Path 20631" d="M428.315,258.931a30.106,30.106,0,0,1-21.288-51.4h0a30.106,30.106,0,1,1,21.288,51.4Zm0-53.308a23.471,23.471,0,0,0-16.442,6.75h0a23.168,23.168,0,0,0-6.75,16.442,23.471,23.471,0,0,0,6.75,16.442,22.469,22.469,0,0,0,16.442,6.75,23.471,23.471,0,0,0,16.442-6.75,22.469,22.469,0,0,0,6.75-16.442,23.471,23.471,0,0,0-6.75-16.442A22.468,22.468,0,0,0,428.315,205.623ZM409.45,209.95Z" transform="translate(-298.161 -122.2)" fill="#fff"/>
      </g>
    </g>
  </g>
</svg>
