<svg xmlns="http://www.w3.org/2000/svg" width="60" height="56.423" viewBox="0 0 60 56.423">
  <g id="business_intelligence" transform="translate(-930.4 -171.625)">
    <g id="Group_2414" data-name="Group 2414" transform="translate(930.4 171.625)">
      <path id="Path_20622" data-name="Path 20622" d="M418.454,245.4a1.157,1.157,0,0,1-1.154-1.154v-7.1a1.154,1.154,0,0,1,2.308,0v7.1A1.157,1.157,0,0,1,418.454,245.4Z" transform="translate(-372.935 -188.981)" fill="#636466"/>
      <path id="Path_20623" data-name="Path 20623" d="M418.454,178.385a1.157,1.157,0,0,1-1.154-1.154V155.654a1.154,1.154,0,0,1,2.308,0v21.577A1.157,1.157,0,0,1,418.454,178.385Z" transform="translate(-372.935 -154.5)" fill="#636466"/>
      <path id="Path_20624" data-name="Path 20624" d="M403.054,244.008a1.157,1.157,0,0,1-1.154-1.154v-9a1.154,1.154,0,0,1,2.308,0v9A1.157,1.157,0,0,1,403.054,244.008Z" transform="translate(-366.419 -187.585)" fill="#636466"/>
      <path id="Path_20625" data-name="Path 20625" d="M403.054,184.019a1.157,1.157,0,0,1-1.154-1.154V165.154a1.154,1.154,0,0,1,2.308,0v17.712A1.157,1.157,0,0,1,403.054,184.019Z" transform="translate(-366.419 -158.519)" fill="#636466"/>
      <path id="Path_20626" data-name="Path 20626" d="M387.654,222.981a1.157,1.157,0,0,1-1.154-1.154V184.154a1.154,1.154,0,1,1,2.308,0v37.673A1.122,1.122,0,0,1,387.654,222.981Z" transform="translate(-359.904 -166.558)" fill="#636466"/>
      <path id="Path_20627" data-name="Path 20627" d="M372.354,225.012a1.157,1.157,0,0,1-1.154-1.154v-34.9a1.154,1.154,0,1,1,2.308,0v34.9A1.157,1.157,0,0,1,372.354,225.012Z" transform="translate(-353.431 -168.588)" fill="#636466"/>
      <path id="Path_20628" data-name="Path 20628" d="M356.954,232.035a1.157,1.157,0,0,1-1.154-1.154V205.554a1.154,1.154,0,0,1,2.308,0v25.327A1.157,1.157,0,0,1,356.954,232.035Z" transform="translate(-346.915 -175.611)" fill="#636466"/>
      <path id="Path_20629" data-name="Path 20629" d="M341.554,237.027a1.157,1.157,0,0,1-1.154-1.154V217.354a1.154,1.154,0,0,1,2.308,0v18.519A1.157,1.157,0,0,1,341.554,237.027Z" transform="translate(-340.4 -180.604)" fill="#636466"/>
      <path id="Path_20630" data-name="Path 20630" d="M434.827,236.712a1.139,1.139,0,0,1-.808-.346l-9.173-9.288a1.115,1.115,0,0,1,0-1.615,1.167,1.167,0,0,1,1.615,0l9.173,9.288a1.115,1.115,0,0,1,0,1.615A1.139,1.139,0,0,1,434.827,236.712Z" transform="translate(-375.981 -184.385)" fill="#636466"/>
      <path id="Path_20631" data-name="Path 20631" d="M408.238,218.777a10.035,10.035,0,0,1-7.1-17.135h0a10.035,10.035,0,1,1,7.1,17.135Zm0-17.769a7.824,7.824,0,0,0-5.481,2.25h0a7.723,7.723,0,0,0-2.25,5.481,7.824,7.824,0,0,0,2.25,5.481,7.49,7.49,0,0,0,5.481,2.25,7.824,7.824,0,0,0,5.481-2.25,7.49,7.49,0,0,0,2.25-5.481,7.824,7.824,0,0,0-2.25-5.481A7.49,7.49,0,0,0,408.238,201.008Zm-6.288,1.442Z" transform="translate(-364.854 -173.2)" fill="#636466"/>
    </g>
  </g>
</svg>
