<svg xmlns="http://www.w3.org/2000/svg" width="50.83" height="59.076" viewBox="0 0 50.83 59.076">
  <g id="Cloud_active" transform="translate(1.5 1.5)">
    <path id="Path_251" data-name="Path 251" d="M1508.725,288.709v9.946a3.165,3.165,0,0,1-3.156,3.155h-25.832a3.165,3.165,0,0,1-3.156-3.155V248.889a3.165,3.165,0,0,1,3.156-3.155h25.832a3.165,3.165,0,0,1,3.156,3.155v6.143" transform="translate(-1476.582 -245.734)" fill="none" stroke="#900" stroke-linecap="round" stroke-linejoin="round" stroke-width="3"/>
    <path id="Path_252" data-name="Path 252" d="M1507.457,301.111c-1.884.023-3,.04-4.41.04-14.93,0-14.978-19.483-.218-19.6,2.169-10.149,19.649-9.075,19.649,3.282,11.326,0,11.795,16.183-.4,16.183-2.569,0-4.729.116-6.746.131" transform="translate(-1483.268 -258.443)" fill="none" stroke="#900" stroke-linecap="round" stroke-linejoin="round" stroke-width="3"/>
  </g>
</svg>
