<svg xmlns="http://www.w3.org/2000/svg" width="383.605" height="383.605" viewBox="0 0 383.605 383.605">
  <g id="Cloud_circle" transform="translate(-45 -1130)">
    <g id="Operations_circle" transform="translate(-31 41)">
      <g id="Consulting" transform="translate(-337 971)">
        <g id="Group_1018" data-name="Group 1018" transform="translate(413 118)">
          <g id="Group_758" data-name="Group 758" transform="translate(0 0)">
            <g id="Group_447" data-name="Group 447">
              <g id="Call_to_Action" data-name="Call to Action">
                <path id="Path_337" data-name="Path 337" d="M191.8,0c105.93,0,191.8,85.873,191.8,191.8s-85.873,191.8-191.8,191.8S0,297.733,0,191.8,85.873,0,191.8,0Z" transform="translate(0 0)" fill="#900"/>
              </g>
            </g>
          </g>
        </g>
      </g>
    </g>
    <g id="Cloud" transform="translate(155 1226)">
      <path id="Path_251" data-name="Path 251" d="M1585.888,391.875V425.7a10.762,10.762,0,0,1-10.731,10.73h-87.843a10.763,10.763,0,0,1-10.732-10.73V256.464a10.763,10.763,0,0,1,10.732-10.73h87.843a10.762,10.762,0,0,1,10.731,10.73v20.89" transform="translate(-1476.582 -245.734)" fill="none" stroke="#fff" stroke-linecap="round" stroke-linejoin="round" stroke-width="6"/>
      <path id="Path_252" data-name="Path 252" d="M1545.034,364.586c-6.407.078-10.194.137-15,.137-50.772,0-50.932-66.254-.74-66.666,7.376-34.512,66.819-30.862,66.819,11.159,38.516,0,40.109,55.03-1.371,55.03-8.738,0-16.081.395-22.942.444" transform="translate(-1462.777 -219.492)" fill="none" stroke="#fff" stroke-linecap="round" stroke-linejoin="round" stroke-width="6"/>
    </g>
  </g>
</svg>
