<svg xmlns="http://www.w3.org/2000/svg" width="383.605" height="383.605" viewBox="0 0 383.605 383.605">
  <g id="Consulting_red_circle" transform="translate(-413 -118)">
    <g id="Group_1018" data-name="Group 1018" transform="translate(413 118)">
      <g id="Group_758" data-name="Group 758" transform="translate(0 0)">
        <g id="Group_447" data-name="Group 447">
          <g id="Call_to_Action" data-name="Call to Action">
            <path id="Path_337" data-name="Path 337" d="M191.8,0c105.93,0,191.8,85.873,191.8,191.8s-85.873,191.8-191.8,191.8S0,297.733,0,191.8,85.873,0,191.8,0Z" transform="translate(0 0)" fill="#c00"/>
          </g>
        </g>
      </g>
    </g>
    <g id="Group_1019" data-name="Group 1019" transform="translate(487 231)">
      <g id="Group_586" data-name="Group 586" transform="translate(131.86 50.986)">
        <g id="Path_239" data-name="Path 239" transform="translate(-95.732 -672.647)" fill="none" stroke-linecap="round" stroke-linejoin="round">
          <path d="M95.732,697.3l.134-24.654,17.1,17.616Z" stroke="none"/>
          <path d="M 101.7804260253906 688.35009765625 L 102.472038269043 688.0676879882813 L 101.7858200073242 687.3607177734375 L 101.7804260253906 688.35009765625 M 95.73157501220703 697.3013305664063 L 95.86589050292969 672.6472778320313 L 112.9651718139648 690.2635498046875 L 95.73157501220703 697.3013305664063 Z" stroke="none" fill="#fff"/>
        </g>
        <line id="Line_144" data-name="Line 144" x1="18.471" y1="45.334" transform="translate(1.616 3.906)" fill="none" stroke="#fff" stroke-linecap="round" stroke-linejoin="round" stroke-width="6"/>
      </g>
      <g id="Ellipse_332" data-name="Ellipse 332" transform="translate(58.765 39.777)" fill="none" stroke="#fff" stroke-linecap="round" stroke-linejoin="round" stroke-width="6">
        <ellipse cx="9.644" cy="9.644" rx="9.644" ry="9.644" stroke="none"/>
        <ellipse cx="9.644" cy="9.644" rx="6.644" ry="6.644" fill="none"/>
      </g>
      <g id="Rectangle_1154" data-name="Rectangle 1154" transform="translate(18.583)" fill="none" stroke="#fff" stroke-linecap="round" stroke-linejoin="round" stroke-width="6">
        <rect width="198.579" height="133.705" rx="4.158" stroke="none"/>
        <rect x="3" y="3" width="192.579" height="127.705" rx="1.158" fill="none"/>
      </g>
      <path id="Path_358" data-name="Path 358" d="M39.606,720.96c0-1.251.083-6.254,6.019-6.254H269.331c5.785,0,6.021,5,6.021,6.254" transform="translate(-39.606 -563.934)" fill="none" stroke="#fff" stroke-linecap="round" stroke-linejoin="round" stroke-width="6"/>
      <g id="Group_587" data-name="Group 587" transform="translate(161.972 39.947)">
        <line id="Line_145" data-name="Line 145" x2="19.099" y2="19.099" stroke-width="6" stroke="#fff" stroke-linecap="round" stroke-linejoin="round" fill="none"/>
        <line id="Line_146" data-name="Line 146" x1="19.099" y2="19.099" stroke-width="6" stroke="#fff" stroke-linecap="round" stroke-linejoin="round" fill="none"/>
      </g>
    </g>
  </g>
</svg>
