<svg xmlns="http://www.w3.org/2000/svg" width="60" height="51.575" viewBox="0 0 60 51.575">
  <g id="data_management" transform="translate(-1284.3 -170.425)">
    <g id="Group_2417" data-name="Group 2417" transform="translate(1284.3 170.425)">
      <path id="Path_20645" data-name="Path 20645" d="M748.892,168.39H699.708c-2.99,0-5.408-1.886-5.408-4.219v-6.652c0-2.333,2.418-4.219,5.408-4.219h49.183c2.99,0,5.408,1.886,5.408,4.219v6.652C754.3,166.454,751.882,168.39,748.892,168.39Zm-49.183-13.154c-1.591,0-2.863.993-2.863,2.234v6.652c0,1.241,1.272,2.234,2.863,2.234h49.183c1.591,0,2.863-.993,2.863-2.234V157.47c0-1.241-1.273-2.234-2.863-2.234Z" transform="translate(-694.3 -153.3)" fill="#636466"/>
      <path id="Path_20646" data-name="Path 20646" d="M748.892,205.19H699.708c-2.99,0-5.408-1.886-5.408-4.219v-6.652c0-2.333,2.418-4.219,5.408-4.219h49.183c2.99,0,5.408,1.886,5.408,4.219v6.652C754.3,203.254,751.882,205.19,748.892,205.19Zm-49.183-13.154c-1.591,0-2.863.993-2.863,2.234v6.652c0,1.241,1.272,2.234,2.863,2.234h49.183c1.591,0,2.863-.993,2.863-2.234V194.27c0-1.241-1.273-2.234-2.863-2.234Z" transform="translate(-694.3 -171.833)" fill="#636466"/>
      <path id="Path_20647" data-name="Path 20647" d="M748.892,241.89H699.708c-2.99,0-5.408-1.886-5.408-4.219v-6.652c0-2.333,2.418-4.219,5.408-4.219h49.183c2.99,0,5.408,1.886,5.408,4.219v6.652C754.3,240,751.882,241.89,748.892,241.89Zm-49.183-13.1c-1.591,0-2.863.993-2.863,2.234v6.652c0,1.241,1.272,2.234,2.863,2.234h49.183c1.591,0,2.863-.993,2.863-2.234v-6.652c0-1.241-1.273-2.234-2.863-2.234Z" transform="translate(-694.3 -190.315)" fill="#636466"/>
    </g>
  </g>
</svg>
