<svg xmlns="http://www.w3.org/2000/svg" width="383.605" height="383.605" viewBox="0 0 383.605 383.605">
  <g id="Digital_circle" transform="translate(-45 -644)">
    <g id="Consulting_red_circle" transform="translate(-368 526)">
      <g id="Group_1018" data-name="Group 1018" transform="translate(413 118)">
        <g id="Group_758" data-name="Group 758" transform="translate(0 0)">
          <g id="Group_447" data-name="Group 447">
            <g id="Call_to_Action" data-name="Call to Action">
              <path id="Path_337" data-name="Path 337" d="M191.8,0c105.93,0,191.8,85.873,191.8,191.8s-85.873,191.8-191.8,191.8S0,297.733,0,191.8,85.873,0,191.8,0Z" transform="translate(0 0)" fill="#900"/>
            </g>
          </g>
        </g>
      </g>
    </g>
    <g id="Group_803" data-name="Group 803" transform="translate(146.999 734)">
      <line id="Line_155" data-name="Line 155" y1="30.163" transform="translate(89.877 26.48)" fill="none" stroke="#fff" stroke-linecap="round" stroke-linejoin="round" stroke-width="8"/>
      <line id="Line_156" data-name="Line 156" y1="29.044" transform="translate(89.877 151.648)" fill="none" stroke="#fff" stroke-linecap="round" stroke-linejoin="round" stroke-width="8"/>
      <line id="Line_157" data-name="Line 157" y1="13.436" x2="23.412" transform="translate(22.383 124.503)" fill="none" stroke="#fff" stroke-linecap="round" stroke-linejoin="round" stroke-width="8"/>
      <line id="Line_158" data-name="Line 158" x2="25.879" y2="13.692" transform="translate(132.317 124.503)" fill="none" stroke="#fff" stroke-linecap="round" stroke-linejoin="round" stroke-width="8"/>
      <line id="Line_159" data-name="Line 159" x2="27.97" y2="15.107" transform="translate(21.557 61.894)" fill="none" stroke="#fff" stroke-linecap="round" stroke-linejoin="round" stroke-width="8"/>
      <ellipse id="Ellipse_285" data-name="Ellipse 285" cx="11.321" cy="11.321" rx="11.321" ry="11.321" transform="translate(78.244)" fill="none" stroke="#fff" stroke-linecap="round" stroke-linejoin="round" stroke-width="8"/>
      <line id="Line_160" data-name="Line 160" y1="34.797" x2="60.286" transform="translate(97.921 61.915)" fill="none" stroke="#fff" stroke-linecap="round" stroke-linejoin="round" stroke-width="8"/>
      <ellipse id="Ellipse_286" data-name="Ellipse 286" cx="11.321" cy="11.321" rx="11.321" ry="11.321" transform="translate(156.152 134.013)" fill="none" stroke="#fff" stroke-linecap="round" stroke-linejoin="round" stroke-width="8"/>
      <ellipse id="Ellipse_287" data-name="Ellipse 287" cx="11.321" cy="11.321" rx="11.321" ry="11.321" transform="translate(156.152 45.854)" fill="none" stroke="#fff" stroke-linecap="round" stroke-linejoin="round" stroke-width="8"/>
      <ellipse id="Ellipse_288" data-name="Ellipse 288" cx="11.321" cy="11.321" rx="11.321" ry="11.321" transform="translate(0 134.013)" fill="none" stroke="#fff" stroke-linecap="round" stroke-linejoin="round" stroke-width="8"/>
      <ellipse id="Ellipse_289" data-name="Ellipse 289" cx="11.321" cy="11.321" rx="11.321" ry="11.321" transform="translate(0 45.854)" fill="none" stroke="#fff" stroke-linecap="round" stroke-linejoin="round" stroke-width="8"/>
      <ellipse id="Ellipse_290" data-name="Ellipse 290" cx="11.321" cy="11.321" rx="11.321" ry="11.321" transform="translate(78.244 180.939)" fill="none" stroke="#fff" stroke-linecap="round" stroke-linejoin="round" stroke-width="8"/>
      <ellipse id="Ellipse_291" data-name="Ellipse 291" cx="11.321" cy="11.321" rx="11.321" ry="11.321" transform="translate(78.244 92.948)" fill="none" stroke="#fff" stroke-linecap="round" stroke-linejoin="round" stroke-width="8"/>
    </g>
  </g>
</svg>
