<svg xmlns="http://www.w3.org/2000/svg" width="39.049" height="39.048" viewBox="0 0 39.049 39.048">
  <g id="fb_footer" transform="translate(-0.001)">
    <rect id="Rectangle_392" data-name="Rectangle 392" width="11.157" height="11.157" transform="translate(3.831 6.47)" fill="none"/>
    <path id="Path_1" data-name="Path 1" d="M85.832,17.21V9.37h2.677l.382-3.06H85.832V4.4c0-.86.287-1.53,1.53-1.53h1.625V.1C88.6.1,87.649,0,86.6,0a3.691,3.691,0,0,0-3.92,4.016V6.31H80V9.37h2.677v7.84Z" transform="translate(-65.013 11.811)" fill="#fff" fill-rule="evenodd"/>
    <g id="Path_360" data-name="Path 360" fill="none">
      <path d="M19.524,0A19.524,19.524,0,1,1,0,19.524,19.524,19.524,0,0,1,19.524,0Z" stroke="none"/>
      <path d="M 19.52408981323242 1 C 17.02290916442871 1 14.59708023071289 1.489631652832031 12.31398010253906 2.455299377441406 C 10.1082706451416 3.388240814208984 8.127119064331055 4.724040985107422 6.425579071044922 6.425579071044922 C 4.724040985107422 8.127119064331055 3.388240814208984 10.1082706451416 2.455299377441406 12.31398010253906 C 1.489631652832031 14.59708023071289 1 17.02290916442871 1 19.52408981323242 C 1 22.02527046203613 1.489631652832031 24.45109939575195 2.455299377441406 26.73419952392578 C 3.388240814208984 28.93991088867188 4.724040985107422 30.92105865478516 6.425579071044922 32.62260055541992 C 8.127119064331055 34.32413864135742 10.1082706451416 35.65993881225586 12.31398010253906 36.59288024902344 C 14.59708023071289 37.55854797363281 17.02290916442871 38.04817962646484 19.52408981323242 38.04817962646484 C 22.02527046203613 38.04817962646484 24.45109939575195 37.55854797363281 26.73419952392578 36.59288024902344 C 28.93991088867188 35.65993881225586 30.92105865478516 34.32413864135742 32.62260055541992 32.62260055541992 C 34.32413864135742 30.92105865478516 35.65993881225586 28.93991088867188 36.59288024902344 26.73419952392578 C 37.55854797363281 24.45109939575195 38.04817962646484 22.02527046203613 38.04817962646484 19.52408981323242 C 38.04817962646484 17.02290916442871 37.55854797363281 14.59708023071289 36.59288024902344 12.31398010253906 C 35.65993881225586 10.1082706451416 34.32413864135742 8.127119064331055 32.62260055541992 6.425579071044922 C 30.92105865478516 4.724040985107422 28.93991088867188 3.388240814208984 26.73419952392578 2.455299377441406 C 24.45109939575195 1.489631652832031 22.02527046203613 1 19.52408981323242 1 M 19.52408981323242 0 C 30.30694961547852 0 39.04817962646484 8.741230010986328 39.04817962646484 19.52408981323242 C 39.04817962646484 30.30694961547852 30.30694961547852 39.04817962646484 19.52408981323242 39.04817962646484 C 8.741230010986328 39.04817962646484 0 30.30694961547852 0 19.52408981323242 C 0 8.741230010986328 8.741230010986328 0 19.52408981323242 0 Z" stroke="none" fill="#fff"/>
    </g>
  </g>
</svg>
