<svg xmlns="http://www.w3.org/2000/svg" width="39.049" height="39.048" viewBox="0 0 39.049 39.048">
  <g id="insta_footer" transform="translate(-1669.279 -6404.084)">
    <g id="Group_554" data-name="Group 554" transform="translate(1669.279 6404.084)">
      <g id="Ellipse_331" data-name="Ellipse 331" fill="none" stroke="#fff" stroke-width="1">
        <circle cx="19.524" cy="19.524" r="19.524" stroke="none"/>
        <circle cx="19.524" cy="19.524" r="19.024" fill="none"/>
      </g>
    </g>
    <path id="Path_3" data-name="Path 3" d="M9.237,1.642a28.321,28.321,0,0,1,3.695.1,4.76,4.76,0,0,1,1.745.308A3.6,3.6,0,0,1,16.421,3.8a4.76,4.76,0,0,1,.308,1.745c0,.924.1,1.232.1,3.695a28.322,28.322,0,0,1-.1,3.695,4.76,4.76,0,0,1-.308,1.745,3.6,3.6,0,0,1-1.745,1.745,4.76,4.76,0,0,1-1.745.308c-.924,0-1.232.1-3.695.1a28.322,28.322,0,0,1-3.695-.1A4.76,4.76,0,0,1,3.8,16.421a3.6,3.6,0,0,1-1.745-1.745,4.76,4.76,0,0,1-.308-1.745c0-.924-.1-1.232-.1-3.695a28.321,28.321,0,0,1,.1-3.695A4.76,4.76,0,0,1,2.053,3.8a3.686,3.686,0,0,1,.718-1.026A1.735,1.735,0,0,1,3.8,2.053a4.76,4.76,0,0,1,1.745-.308,28.321,28.321,0,0,1,3.695-.1M9.237,0a30.324,30.324,0,0,0-3.8.1A6.336,6.336,0,0,0,3.182.513,4.018,4.018,0,0,0,1.539,1.539,4.018,4.018,0,0,0,.513,3.182,4.676,4.676,0,0,0,.1,5.439a30.324,30.324,0,0,0-.1,3.8,30.324,30.324,0,0,0,.1,3.8,6.336,6.336,0,0,0,.411,2.258,4.018,4.018,0,0,0,1.026,1.642A4.018,4.018,0,0,0,3.182,17.96a6.336,6.336,0,0,0,2.258.411,30.324,30.324,0,0,0,3.8.1,30.324,30.324,0,0,0,3.8-.1,6.336,6.336,0,0,0,2.258-.411,4.306,4.306,0,0,0,2.668-2.668,6.336,6.336,0,0,0,.411-2.258c0-1.026.1-1.334.1-3.8a30.324,30.324,0,0,0-.1-3.8,6.336,6.336,0,0,0-.411-2.258,4.018,4.018,0,0,0-1.026-1.642A4.018,4.018,0,0,0,15.292.513,6.336,6.336,0,0,0,13.034.1a30.324,30.324,0,0,0-3.8-.1m0,4.516A4.645,4.645,0,0,0,4.516,9.237,4.721,4.721,0,1,0,9.237,4.516m0,7.8A3.024,3.024,0,0,1,6.158,9.237,3.024,3.024,0,0,1,9.237,6.158a3.024,3.024,0,0,1,3.079,3.079,3.024,3.024,0,0,1-3.079,3.079m4.926-9.134A1.129,1.129,0,1,0,15.292,4.31a1.139,1.139,0,0,0-1.129-1.129" transform="translate(1679.694 6414.859)" fill="#fff" fill-rule="evenodd"/>
  </g>
</svg>
