<svg xmlns="http://www.w3.org/2000/svg" width="60" height="60" viewBox="0 0 60 60">
  <g id="predictive_analytics_hover" transform="translate(-593 -169.025)">
    <g id="Group_2416" data-name="Group 2416" transform="translate(593 169.025)">
      <path id="Path_20643" data-name="Path 20643" d="M29.25,217.358a26.279,26.279,0,0,1,0-52.558h.058a1.109,1.109,0,0,1,1.1,1.154V189.9H54.346A1.157,1.157,0,0,1,55.5,191.05,26.321,26.321,0,0,1,29.25,217.358ZM28.1,167.108a23.957,23.957,0,1,0,25.1,25.1H29.25A1.157,1.157,0,0,1,28.1,191.05Z" transform="translate(-3 -157.358)" fill="#c00"/>
      <path id="Path_20644" data-name="Path 20644" d="M85.75,179.3h-25.1A1.157,1.157,0,0,1,59.5,178.15v-25.1a1.183,1.183,0,0,1,1.154-1.154h0A26.271,26.271,0,0,1,86.9,178.15,1.183,1.183,0,0,1,85.75,179.3ZM61.808,177H84.6a24.052,24.052,0,0,0-22.788-22.788Z" transform="translate(-26.904 -151.9)" fill="#c00"/>
    </g>
  </g>
</svg>
