<svg xmlns="http://www.w3.org/2000/svg" width="383.605" height="383.605" viewBox="0 0 383.605 383.605">
  <g id="predictive_analytics_circle" transform="translate(-45 -1021)">
    <g id="Consulting_red_circle" transform="translate(-368 903)">
      <g id="Group_1018" data-name="Group 1018" transform="translate(413 118)">
        <g id="Group_758" data-name="Group 758" transform="translate(0 0)">
          <g id="Group_447" data-name="Group 447">
            <g id="Call_to_Action" data-name="Call to Action">
              <path id="Path_337" data-name="Path 337" d="M191.8,0c105.93,0,191.8,85.873,191.8,191.8s-85.873,191.8-191.8,191.8S0,297.733,0,191.8,85.873,0,191.8,0Z" transform="translate(0 0)" fill="#c00"/>
            </g>
          </g>
        </g>
      </g>
    </g>
    <g id="Group_2432" data-name="Group 2432" transform="translate(-446 953.975)">
      <g id="Group_2416" data-name="Group 2416" transform="translate(593 169.025)">
        <path id="Path_20643" data-name="Path 20643" d="M81.75,322.473a78.837,78.837,0,0,1,0-157.673h.173a3.328,3.328,0,0,1,3.288,3.462v71.827h71.827a3.472,3.472,0,0,1,3.462,3.462A78.962,78.962,0,0,1,81.75,322.473Zm-3.462-150.75a71.87,71.87,0,1,0,75.288,75.288H81.75a3.472,3.472,0,0,1-3.462-3.461Z" transform="translate(-3 -142.473)" fill="#fff"/>
        <path id="Path_20644" data-name="Path 20644" d="M138.25,234.112H62.962A3.472,3.472,0,0,1,59.5,230.65V155.362a3.549,3.549,0,0,1,3.462-3.462h0a78.814,78.814,0,0,1,78.75,78.75,3.549,3.549,0,0,1-3.462,3.462Zm-71.827-6.923h68.365c-1.731-36.865-31.5-66.462-68.365-68.365Z" transform="translate(38.288 -151.9)" fill="#fff"/>
      </g>
    </g>
  </g>
</svg>
