<svg xmlns="http://www.w3.org/2000/svg" width="60" height="53.482" viewBox="0 0 60 53.482">
  <g id="robotic_process_automation" transform="translate(-340 -6.8)">
    <path id="Path_20668" data-name="Path 20668" d="M419.718,76.73a1.222,1.222,0,0,1-1.218-1.218V66.618a1.218,1.218,0,1,1,2.437,0v8.893A1.222,1.222,0,0,1,419.718,76.73Z" transform="translate(-30.683 -22.905)" fill="#636466"/>
    <path id="Path_20669" data-name="Path 20669" d="M397.529,51.137h-8.711a1.218,1.218,0,1,1,0-2.437h8.711a1.218,1.218,0,0,1,0,2.437Z" transform="translate(-18.605 -16.377)" fill="#636466"/>
    <path id="Path_20670" data-name="Path 20670" d="M367.529,51.137H352.118a1.218,1.218,0,0,1,0-2.437h15.411a1.218,1.218,0,0,1,0,2.437Z" transform="translate(-4.26 -16.377)" fill="#636466"/>
    <path id="Path_20671" data-name="Path 20671" d="M346.318,35.191a1.222,1.222,0,0,1-1.218-1.218V18.318a1.218,1.218,0,0,1,2.437,0V34.034A1.211,1.211,0,0,1,346.318,35.191Z" transform="translate(-1.993 -4.026)" fill="#636466"/>
    <path id="Path_20672" data-name="Path 20672" d="M344.325,15.45a4.325,4.325,0,1,1,4.325-4.325A4.342,4.342,0,0,1,344.325,15.45Zm0-6.213a1.888,1.888,0,1,0,1.888,1.888A1.9,1.9,0,0,0,344.325,9.237Z" fill="#636466"/>
    <path id="Path_20673" data-name="Path 20673" d="M344.325,52.25a4.325,4.325,0,1,1,4.325-4.325A4.342,4.342,0,0,1,344.325,52.25Zm0-6.213a1.888,1.888,0,1,0,1.888,1.888A1.9,1.9,0,0,0,344.325,46.037Z" transform="translate(0 -14.384)" fill="#636466"/>
    <path id="Path_20674" data-name="Path 20674" d="M381.025,52.25a4.325,4.325,0,1,1,4.325-4.325A4.265,4.265,0,0,1,381.025,52.25Zm0-6.213a1.888,1.888,0,1,0,1.888,1.888A1.823,1.823,0,0,0,381.025,46.037Z" transform="translate(-14.345 -14.384)" fill="#636466"/>
    <path id="Path_20675" data-name="Path 20675" d="M413.6,54.507a10.9,10.9,0,1,1,10.9-10.9A10.932,10.932,0,0,1,413.6,54.507Zm0-19.31a8.467,8.467,0,1,0,8.467,8.467A8.488,8.488,0,0,0,413.6,35.2Z" transform="translate(-24.507 -10.123)" fill="#636466"/>
    <path id="Path_20676" data-name="Path 20676" d="M417.825,52.25a4.325,4.325,0,1,1,4.325-4.325A4.265,4.265,0,0,1,417.825,52.25Zm0-6.213a1.888,1.888,0,1,0,1.888,1.888A1.859,1.859,0,0,0,417.825,46.037Z" transform="translate(-28.728 -14.384)" fill="#636466"/>
    <path id="Path_20677" data-name="Path 20677" d="M417.825,89.05a4.325,4.325,0,1,1,4.325-4.325A4.265,4.265,0,0,1,417.825,89.05Zm0-6.274a1.888,1.888,0,1,0,1.888,1.888A1.859,1.859,0,0,0,417.825,82.776Z" transform="translate(-28.728 -28.768)" fill="#636466"/>
  </g>
</svg>
