<svg xmlns="http://www.w3.org/2000/svg" width="383.605" height="383.605" viewBox="0 0 383.605 383.605">
  <g id="robotic_process_automation_circle" transform="translate(-238 106)">
    <g id="Applications_red_circle" transform="translate(-302 -709)">
      <g id="Consulting" transform="translate(127 485)">
        <g id="Group_1018" data-name="Group 1018" transform="translate(413 118)">
          <g id="Group_758" data-name="Group 758" transform="translate(0 0)">
            <g id="Group_447" data-name="Group 447">
              <g id="Call_to_Action" data-name="Call to Action">
                <path id="Path_337" data-name="Path 337" d="M191.8,0c105.93,0,191.8,85.873,191.8,191.8s-85.873,191.8-191.8,191.8S0,297.733,0,191.8,85.873,0,191.8,0Z" transform="translate(0 0)" fill="#c00"/>
              </g>
            </g>
          </g>
        </g>
      </g>
    </g>
    <path id="Path_20668" data-name="Path 20668" d="M422.155,99.39a3.666,3.666,0,0,1-3.655-3.655V69.055a3.655,3.655,0,0,1,7.31,0v26.68A3.666,3.666,0,0,1,422.155,99.39Z" transform="translate(64.952 48.486)" fill="#fff"/>
    <path id="Path_20669" data-name="Path 20669" d="M417.387,56.01H391.255a3.655,3.655,0,0,1,0-7.31h26.132a3.655,3.655,0,0,1,0,7.31Z" transform="translate(39.385 34.669)" fill="#fff"/>
    <path id="Path_20670" data-name="Path 20670" d="M400.788,56.01H354.555a3.655,3.655,0,0,1,0-7.31h46.234a3.655,3.655,0,0,1,0,7.31Z" transform="translate(9.019 34.669)" fill="#fff"/>
    <path id="Path_20671" data-name="Path 20671" d="M348.755,71.374a3.666,3.666,0,0,1-3.655-3.655V20.755a3.655,3.655,0,1,1,7.31,0V67.9A3.633,3.633,0,0,1,348.755,71.374Z" transform="translate(4.22 8.522)" fill="#fff"/>
    <path id="Path_20672" data-name="Path 20672" d="M352.975,32.749a12.975,12.975,0,1,1,12.975-12.975A13.025,13.025,0,0,1,352.975,32.749Zm0-18.64a5.665,5.665,0,1,0,5.665,5.665A5.693,5.693,0,0,0,352.975,14.11Z" transform="translate(0 0)" fill="#fff"/>
    <path id="Path_20673" data-name="Path 20673" d="M352.975,69.549a12.975,12.975,0,1,1,12.975-12.975A13.025,13.025,0,0,1,352.975,69.549Zm0-18.64a5.665,5.665,0,1,0,5.665,5.665A5.693,5.693,0,0,0,352.975,50.91Z" transform="translate(0 30.449)" fill="#fff"/>
    <path id="Path_20674" data-name="Path 20674" d="M389.674,69.549a12.975,12.975,0,1,1,12.975-12.975A12.794,12.794,0,0,1,389.674,69.549Zm0-18.64a5.665,5.665,0,1,0,5.665,5.665A5.47,5.47,0,0,0,389.674,50.91Z" transform="translate(30.366 30.449)" fill="#fff"/>
    <path id="Path_20675" data-name="Path 20675" d="M435.411,98.121a32.711,32.711,0,1,1,32.711-32.711A32.795,32.795,0,0,1,435.411,98.121Zm0-57.929a25.4,25.4,0,1,0,25.4,25.4A25.464,25.464,0,0,0,435.411,40.192Z" transform="translate(51.879 21.43)" fill="#fff"/>
    <path id="Path_20676" data-name="Path 20676" d="M426.475,69.549a12.975,12.975,0,1,1,12.975-12.975A12.794,12.794,0,0,1,426.475,69.549Zm0-18.64a5.665,5.665,0,1,0,5.665,5.665A5.578,5.578,0,0,0,426.475,50.91Z" transform="translate(60.815 30.449)" fill="#fff"/>
    <path id="Path_20677" data-name="Path 20677" d="M426.475,106.349a12.975,12.975,0,1,1,12.975-12.975A12.794,12.794,0,0,1,426.475,106.349Zm0-18.822a5.665,5.665,0,1,0,5.665,5.665A5.578,5.578,0,0,0,426.475,87.527Z" transform="translate(60.815 60.897)" fill="#fff"/>
  </g>
</svg>
