<svg xmlns="http://www.w3.org/2000/svg" width="63.313" height="63.313" viewBox="0 0 63.313 63.313">
  <g id="Sourcing" transform="translate(-205.499 -2396.587)">
    <g id="Group_764" data-name="Group 764" transform="translate(206.999 2398.087)">
      <path id="Path_309" data-name="Path 309" d="M564.673,440.87v9.737l4.165,0v0a5.321,5.321,0,0,1,0,10.642v0h-.016l-.017,0-.016,0h-4.116v9.735" transform="translate(-534.547 -440.818)" fill="none" stroke="#666" stroke-linecap="round" stroke-linejoin="round" stroke-width="3"/>
      <path id="Path_310" data-name="Path 310" d="M558.454,520.906v-9.737l-4.165,0v0a5.321,5.321,0,0,1,0-10.642v0h.016l.017,0,.017,0h4.115v-9.736" transform="translate(-528.326 -460.629)" fill="none" stroke="#666" stroke-linecap="round" stroke-linejoin="round" stroke-width="3"/>
      <path id="Path_311" data-name="Path 311" d="M594.784,490.8h-9.737l0,4.165h0a5.321,5.321,0,0,1-10.642,0h0v-.016c0-.005,0-.011,0-.017s0-.011,0-.017V490.8h-9.736" transform="translate(-534.545 -460.631)" fill="none" stroke="#666" stroke-linecap="round" stroke-linejoin="round" stroke-width="3"/>
      <path id="Path_312" data-name="Path 312" d="M514.748,484.576h9.737l0-4.165h0a5.321,5.321,0,0,1,10.641,0h0v.016c0,.005,0,.011,0,.017s0,.011,0,.017v4.115h9.735" transform="translate(-514.734 -454.41)" fill="none" stroke="#666" stroke-linecap="round" stroke-linejoin="round" stroke-width="3"/>
      <path id="Path_313" data-name="Path 313" d="M544.88,440.783h0a30.156,30.156,0,1,0,30.156,30.156h0V440.783Z" transform="translate(-514.724 -440.783)" fill="none" stroke="#666" stroke-linecap="round" stroke-linejoin="round" stroke-width="3"/>
    </g>
  </g>
</svg>
