<svg xmlns="http://www.w3.org/2000/svg" width="39.049" height="39.048" viewBox="0 0 39.049 39.048">
  <g id="tw_footer" transform="translate(-1602.906 -6404.939)">
    <g id="Group_558" data-name="Group 558" transform="translate(1537.379 6404.939)">
      <path id="Path_2" data-name="Path 2" d="M43.445,15.946A9.94,9.94,0,0,0,53.474,5.916V5.439a7.765,7.765,0,0,0,1.719-1.815,7.929,7.929,0,0,1-2.006.573,3.716,3.716,0,0,0,1.528-1.91,8.761,8.761,0,0,1-2.2.86A3.411,3.411,0,0,0,49.94,2a3.589,3.589,0,0,0-3.534,3.534,1.862,1.862,0,0,0,.1.764,9.876,9.876,0,0,1-7.259-3.725,3.658,3.658,0,0,0-.478,1.815,3.8,3.8,0,0,0,1.528,2.961,3.22,3.22,0,0,1-1.624-.478h0a3.491,3.491,0,0,0,2.866,3.439,2.945,2.945,0,0,1-.955.1,1.626,1.626,0,0,1-.669-.1,3.619,3.619,0,0,0,3.343,2.483,7.212,7.212,0,0,1-4.394,1.528,2.645,2.645,0,0,1-.86-.1,9.016,9.016,0,0,0,5.445,1.719" transform="translate(38.752 10.814)" fill="#fff" fill-rule="evenodd"/>
    </g>
    <g id="Group_552" data-name="Group 552" transform="translate(1602.907 6404.939)">
      <rect id="Rectangle_392" data-name="Rectangle 392" width="11.157" height="11.157" transform="translate(3.831 6.47)" fill="none"/>
      <g id="Path_360" data-name="Path 360" fill="none">
        <path d="M19.524,0A19.524,19.524,0,1,1,0,19.524,19.524,19.524,0,0,1,19.524,0Z" stroke="none"/>
        <path d="M 19.52408981323242 1 C 17.02290916442871 1 14.59708023071289 1.489631652832031 12.31398010253906 2.455299377441406 C 10.1082706451416 3.388240814208984 8.127119064331055 4.724040985107422 6.425579071044922 6.425579071044922 C 4.724040985107422 8.127119064331055 3.388240814208984 10.1082706451416 2.455299377441406 12.31398010253906 C 1.489631652832031 14.59708023071289 1 17.02290916442871 1 19.52408981323242 C 1 22.02527046203613 1.489631652832031 24.45109939575195 2.455299377441406 26.73419952392578 C 3.388240814208984 28.93991088867188 4.724040985107422 30.92105865478516 6.425579071044922 32.62260055541992 C 8.127119064331055 34.32413864135742 10.1082706451416 35.65993881225586 12.31398010253906 36.59288024902344 C 14.59708023071289 37.55854797363281 17.02290916442871 38.04817962646484 19.52408981323242 38.04817962646484 C 22.02527046203613 38.04817962646484 24.45109939575195 37.55854797363281 26.73419952392578 36.59288024902344 C 28.93991088867188 35.65993881225586 30.92105865478516 34.32413864135742 32.62260055541992 32.62260055541992 C 34.32413864135742 30.92105865478516 35.65993881225586 28.93991088867188 36.59288024902344 26.73419952392578 C 37.55854797363281 24.45109939575195 38.04817962646484 22.02527046203613 38.04817962646484 19.52408981323242 C 38.04817962646484 17.02290916442871 37.55854797363281 14.59708023071289 36.59288024902344 12.31398010253906 C 35.65993881225586 10.1082706451416 34.32413864135742 8.127119064331055 32.62260055541992 6.425579071044922 C 30.92105865478516 4.724040985107422 28.93991088867188 3.388240814208984 26.73419952392578 2.455299377441406 C 24.45109939575195 1.489631652832031 22.02527046203613 1 19.52408981323242 1 M 19.52408981323242 0 C 30.30694961547852 0 39.04817962646484 8.741230010986328 39.04817962646484 19.52408981323242 C 39.04817962646484 30.30694961547852 30.30694961547852 39.04817962646484 19.52408981323242 39.04817962646484 C 8.741230010986328 39.04817962646484 0 30.30694961547852 0 19.52408981323242 C 0 8.741230010986328 8.741230010986328 0 19.52408981323242 0 Z" stroke="none" fill="#fff"/>
      </g>
    </g>
  </g>
</svg>
